<svg width="60" height="60" viewBox="0 0 60 60" fill="none" xmlns="http://www.w3.org/2000/svg">
<g clip-path="url(#clip0_52_139)">
<path d="M57.2556 41.445C58.6858 42.8792 59.489 44.8219 59.489 46.8474C59.489 48.8728 58.6858 50.8155 57.2556 52.2497L55.0049 54.841C34.7899 74.1848 -14.3914 25.0184 4.65871 4.74169L7.49685 2.27374C8.9323 0.883167 10.8575 0.113644 12.856 0.131657C14.8545 0.149669 16.7655 0.953769 18.1757 2.36999C18.2522 2.44403 22.8228 8.38685 22.8228 8.38685C24.175 9.81466 24.9275 11.7072 24.9247 13.6737C24.9219 15.6402 24.1642 17.5306 22.808 18.9546L19.9501 22.5479C21.5321 26.3906 23.8575 29.8829 26.793 32.8243C29.7284 35.7657 33.216 38.0982 37.0555 39.6878L40.671 36.8127C42.0922 35.4529 43.9825 34.6926 45.9495 34.6899C47.9164 34.6871 49.8088 35.442 51.2338 36.7979C51.2338 36.7979 57.1791 41.371 57.2556 41.445ZM53.8622 45.0334C53.8622 45.0334 47.9564 40.4875 47.8799 40.4134C47.3715 39.9093 46.6845 39.6264 45.9685 39.6264C45.2525 39.6264 44.5655 39.9093 44.057 40.4134C43.9904 40.4776 39.0126 44.446 39.0126 44.446C38.6771 44.7131 38.2779 44.8881 37.8542 44.9538C37.4305 45.0196 36.9971 44.9739 36.5964 44.8212C31.6196 42.9695 27.0991 40.0695 23.3413 36.3177C19.5835 32.5659 16.6763 28.0499 14.8168 23.0761C14.6519 22.67 14.5982 22.2273 14.6611 21.7936C14.724 21.3598 14.9012 20.9507 15.1746 20.6081C15.1746 20.6081 19.1431 15.6377 19.2097 15.5735C19.7139 15.0651 19.9967 14.3781 19.9967 13.6621C19.9967 12.9461 19.7139 12.2591 19.2097 11.7507C19.1357 11.6766 14.5897 5.76589 14.5897 5.76589C14.0737 5.30317 13.4002 5.05536 12.7073 5.07325C12.0144 5.09115 11.3546 5.3734 10.8631 5.86214L8.02499 8.33009C-5.89918 25.0702 36.7272 65.3323 51.3943 51.4772L53.645 48.8834C54.1757 48.3965 54.4953 47.7216 54.5359 47.0025C54.5764 46.2835 54.3347 45.577 53.8622 45.0334Z" fill="#14AC0B"/>
</g>
<defs>
<clipPath id="clip0_52_139">
<rect x="0.307617" y="0.0771484" width="59.2308" height="59.2308" fill="white"/>
</clipPath>
</defs>
</svg>
