<svg width="60" height="60" viewBox="0 0 60 60" fill="none" xmlns="http://www.w3.org/2000/svg">
<g clip-path="url(#clip0_52_132)">
<path d="M29.6854 15.2598C27.7363 15.2598 25.831 15.8377 24.2104 16.9206C22.5897 18.0035 21.3266 19.5426 20.5807 21.3433C19.8348 23.144 19.6397 25.1255 20.0199 27.0371C20.4002 28.9488 21.3388 30.7047 22.717 32.083C24.0952 33.4612 25.8512 34.3998 27.7628 34.78C29.6745 35.1603 31.656 34.9651 33.4567 34.2192C35.2574 33.4733 36.7966 32.2102 37.8794 30.5896C38.9623 28.969 39.5403 27.0637 39.5403 25.1146C39.5403 22.5009 38.502 19.9943 36.6538 18.1462C34.8057 16.298 32.2991 15.2598 29.6854 15.2598ZM29.6854 30.042C28.7109 30.042 27.7582 29.753 26.9479 29.2115C26.1376 28.6701 25.506 27.9006 25.1331 27.0002C24.7601 26.0998 24.6625 25.1091 24.8527 24.1533C25.0428 23.1975 25.5121 22.3195 26.2012 21.6304C26.8903 20.9413 27.7683 20.472 28.7241 20.2818C29.6799 20.0917 30.6707 20.1893 31.5711 20.5622C32.4714 20.9352 33.241 21.5667 33.7824 22.377C34.3238 23.1874 34.6128 24.14 34.6128 25.1146C34.6128 26.4214 34.0937 27.6747 33.1696 28.5988C32.2456 29.5228 30.9922 30.042 29.6854 30.042Z" fill="#14AC0B"/>
<path d="M29.6856 59.6063C27.611 59.6169 25.5641 59.1304 23.7162 58.1874C21.8683 57.2443 20.2733 55.8723 19.0646 54.1862C9.67542 41.2345 4.91309 31.498 4.91309 25.2451C4.91309 18.6751 7.52304 12.3741 12.1688 7.72835C16.8145 3.08261 23.1155 0.472656 29.6856 0.472656C36.2557 0.472656 42.5567 3.08261 47.2024 7.72835C51.8482 12.3741 54.4582 18.6751 54.4582 25.2451C54.4582 31.498 49.6958 41.2345 40.3066 54.1862C39.098 55.8723 37.5029 57.2443 35.655 58.1874C33.8071 59.1304 31.7602 59.6169 29.6856 59.6063ZM29.6856 5.85091C24.5424 5.85678 19.6116 7.90249 15.9748 11.5393C12.338 15.176 10.2923 20.1069 10.2864 25.2501C10.2864 30.2021 14.9502 39.3597 23.4155 51.0351C24.1341 52.025 25.0769 52.8306 26.1667 53.3861C27.2565 53.9417 28.4624 54.2313 29.6856 54.2313C30.9088 54.2313 32.1147 53.9417 33.2045 53.3861C34.2943 52.8306 35.2371 52.025 35.9557 51.0351C44.421 39.3597 49.0848 30.2021 49.0848 25.2501C49.0789 20.1069 47.0332 15.176 43.3964 11.5393C39.7597 7.90249 34.8288 5.85678 29.6856 5.85091Z" fill="#14AC0B"/>
</g>
<defs>
<clipPath id="clip0_52_132">
<rect x="0.121094" y="0.477539" width="59.1288" height="59.1288" fill="white"/>
</clipPath>
</defs>
</svg>
