<svg width="59" height="55" viewBox="0 0 59 55" fill="none" xmlns="http://www.w3.org/2000/svg">
<g clip-path="url(#clip0_52_123)">
<path d="M46.7083 0H12.2917C9.03291 0.00390349 5.90875 1.30017 3.60446 3.60446C1.30017 5.90876 0.00390348 9.03293 0 12.2917L0 41.7917C0.00390348 45.0505 1.30017 48.1747 3.60446 50.479C5.90875 52.7833 9.03291 54.0795 12.2917 54.0834H46.7083C49.9671 54.0795 53.0913 52.7833 55.3955 50.479C57.6998 48.1747 58.9961 45.0505 59 41.7917V12.2917C58.9961 9.03293 57.6998 5.90876 55.3955 3.60446C53.0913 1.30017 49.9671 0.00390349 46.7083 0ZM12.2917 4.91668H46.7083C48.1803 4.91957 49.6178 5.3629 50.8358 6.18961C52.0537 7.01633 52.9964 8.18859 53.5425 9.55556L34.7166 28.384C33.3311 29.7639 31.4554 30.5386 29.5 30.5386C27.5446 30.5386 25.6689 29.7639 24.2834 28.384L5.4575 9.55556C6.00362 8.18859 6.9463 7.01633 8.16424 6.18961C9.38218 5.3629 10.8197 4.91957 12.2917 4.91668ZM46.7083 49.1668H12.2917C10.3357 49.1668 8.45984 48.3898 7.07675 47.0067C5.69367 45.6236 4.91667 43.7477 4.91667 41.7917V15.9792L20.8073 31.8601C23.1148 34.1617 26.2409 35.4542 29.5 35.4542C32.7591 35.4542 35.8852 34.1617 38.1927 31.8601L54.0833 15.9792V41.7917C54.0833 43.7477 53.3063 45.6236 51.9232 47.0067C50.5402 48.3898 48.6643 49.1668 46.7083 49.1668Z" fill="#14AC0B"/>
</g>
<defs>
<clipPath id="clip0_52_123">
<rect width="59" height="54.0834" fill="white"/>
</clipPath>
</defs>
</svg>
