<svg width="59" height="64" viewBox="0 0 59 64" fill="none" xmlns="http://www.w3.org/2000/svg">
<path d="M46.4334 14.6582C45.0625 6.42157 37.8292 0.0991211 29.1667 0.0991211C22.8083 0.0991211 17.0042 3.52137 13.9417 8.97376C6.09584 9.98883 0 16.7463 0 24.7509C0 33.5385 7.20417 40.702 16.0417 40.702H45.2084C52.4417 40.702 58.3334 34.8436 58.3334 27.6511C58.3334 20.8646 53.1125 15.2672 46.4334 14.6582ZM45.2084 34.9016H16.0417C10.4125 34.9016 5.83334 30.3483 5.83334 24.7509C5.83334 19.7045 9.65417 15.3832 14.7 14.7162L17.5875 14.3391L19.0167 11.816C21.0875 8.1617 24.9667 5.89954 29.1667 5.89954C34.825 5.89954 39.7542 10.0758 40.6875 15.6152L41.4167 20.0235L45.9084 20.4296C49.6125 20.7776 52.5 23.9388 52.5 27.6511C52.5 31.6534 49.2334 34.9016 45.2084 34.9016Z" fill="white"/>
<path d="M37.3332 43.6022L28.8748 53.2309L34.7082 56.1311L27.854 63.9037H35.5832L44.0415 54.275L38.2082 51.3748L45.0624 43.6022H37.3332Z" fill="white"/>
<path d="M19.8332 43.6022L11.3748 53.2309L17.2082 56.1311L10.354 63.9037H18.0832L26.5415 54.275L20.7082 51.3748L27.5624 43.6022H19.8332Z" fill="white"/>
</svg>
