<svg width="11" height="11" viewBox="0 0 11 11" fill="none" xmlns="http://www.w3.org/2000/svg">
<path d="M10.576 7.68258C10.8416 7.94893 10.9907 8.30973 10.9907 8.68587C10.9907 9.06202 10.8416 9.42282 10.576 9.68917L10.158 10.1704C6.40375 13.7628 -2.72991 4.63192 0.807962 0.866251L1.33505 0.407918C1.60163 0.149668 1.95917 0.00675633 2.33032 0.0101015C2.70146 0.0134467 3.05637 0.16278 3.31825 0.425793C3.33246 0.439543 4.1813 1.54321 4.1813 1.54321C4.43243 1.80837 4.57216 2.15984 4.57165 2.52505C4.57113 2.89026 4.43042 3.24133 4.17855 3.50579L3.6478 4.17312C3.94158 4.88676 4.37345 5.53533 4.91861 6.08159C5.46376 6.62784 6.11146 7.06102 6.8245 7.35625L7.49596 6.82229C7.7599 6.56975 8.11096 6.42857 8.47624 6.42806C8.84153 6.42755 9.19299 6.56774 9.45763 6.81954C9.45763 6.81954 10.5618 7.66883 10.576 7.68258ZM9.94575 8.349C9.94575 8.349 8.84896 7.50475 8.83475 7.491C8.74033 7.39738 8.61274 7.34485 8.47977 7.34485C8.3468 7.34485 8.21922 7.39738 8.12479 7.491C8.11242 7.50292 7.18796 8.23992 7.18796 8.23992C7.12566 8.2895 7.05152 8.32201 6.97284 8.33422C6.89416 8.34644 6.81365 8.33795 6.73925 8.30958C5.81499 7.96571 4.97546 7.42713 4.27759 6.73036C3.57971 6.0336 3.0398 5.19493 2.69446 4.27121C2.66384 4.19579 2.65386 4.11358 2.66554 4.03303C2.67722 3.95248 2.71014 3.87649 2.76092 3.81288C2.76092 3.81288 3.49792 2.88979 3.5103 2.87788C3.60392 2.78345 3.65645 2.65587 3.65645 2.5229C3.65645 2.38993 3.60392 2.26234 3.5103 2.16792C3.49655 2.15417 2.6523 1.05646 2.6523 1.05646C2.55646 0.970525 2.43138 0.924503 2.3027 0.927826C2.17402 0.93115 2.05149 0.983567 1.96021 1.07433L1.43313 1.53267C-1.15279 4.64154 6.76355 12.1188 9.48742 9.54571L9.90542 9.064C10.004 8.97356 10.0633 8.84824 10.0709 8.71469C10.0784 8.58115 10.0335 8.44994 9.94575 8.349Z" fill="white"/>
</svg>
