<svg width="58" height="56" viewBox="0 0 58 56" fill="none" xmlns="http://www.w3.org/2000/svg">
<path d="M40.2618 31.3282L34.0747 37.6949L51.5636 55.6916L57.7508 49.3249L40.2618 31.3282Z" fill="white"/>
<path d="M44.9167 22.1724C50.5458 22.1724 55.125 17.4603 55.125 11.6677C55.125 9.92695 54.6583 8.30622 53.9292 6.86557L46.0542 14.9692L41.7083 10.4972L49.5833 2.39357C48.1833 1.64324 46.6083 1.16302 44.9167 1.16302C39.2875 1.16302 34.7083 5.87513 34.7083 11.6677C34.7083 12.8983 34.9417 14.0688 35.3208 15.1493L29.925 20.7018L24.7333 15.3594L26.8042 13.2284L22.6917 8.99653L28.875 2.63368C25.4625 -0.877893 19.9208 -0.877893 16.5083 2.63368L6.18333 13.2584L10.2958 17.4903H2.07083L0 19.6213L10.325 30.246L12.3958 28.1151V19.6213L16.5083 23.8532L18.5792 21.7222L23.7708 27.0646L2.15833 49.3046L8.34167 55.6674L41.5333 21.5421C42.5833 21.9323 43.7208 22.1724 44.9167 22.1724Z" fill="white"/>
</svg>
