<svg width="11" height="11" viewBox="0 0 11 11" fill="none" xmlns="http://www.w3.org/2000/svg">
<g clip-path="url(#clip0_61_269)">
<path d="M8.70833 0H2.29167C1.6841 0.000727769 1.10163 0.242405 0.672017 0.672018C0.242404 1.10163 0.000727768 1.6841 0 2.29167L0 7.79168C0.000727768 8.39924 0.242404 8.98172 0.672017 9.41133C1.10163 9.84094 1.6841 10.0826 2.29167 10.0833H8.70833C9.31589 10.0826 9.89836 9.84094 10.328 9.41133C10.7576 8.98172 10.9993 8.39924 11 7.79168V2.29167C10.9993 1.6841 10.7576 1.10163 10.328 0.672018C9.89836 0.242405 9.31589 0.000727769 8.70833 0ZM2.29167 0.916668H8.70833C8.98277 0.917208 9.25077 0.999862 9.47785 1.154C9.70492 1.30813 9.88068 1.52669 9.98249 1.78154L6.47258 5.29192C6.21428 5.54919 5.86456 5.69364 5.5 5.69364C5.13543 5.69364 4.78572 5.54919 4.52741 5.29192L1.0175 1.78154C1.11932 1.52669 1.29507 1.30813 1.52215 1.154C1.74922 0.999862 2.01722 0.917208 2.29167 0.916668ZM8.70833 9.16668H2.29167C1.92699 9.16668 1.57726 9.02181 1.31939 8.76395C1.06153 8.50609 0.916666 8.15635 0.916666 7.79168V2.97917L3.87933 5.94001C4.30953 6.36913 4.89236 6.61011 5.5 6.61011C6.10763 6.61011 6.69046 6.36913 7.12066 5.94001L10.0833 2.97917V7.79168C10.0833 8.15635 9.93846 8.50609 9.6806 8.76395C9.42274 9.02181 9.073 9.16668 8.70833 9.16668Z" fill="white"/>
</g>
<defs>
<clipPath id="clip0_61_269">
<rect width="11" height="10.0833" fill="white"/>
</clipPath>
</defs>
</svg>
