<svg width="48" height="58" viewBox="0 0 48 58" fill="none" xmlns="http://www.w3.org/2000/svg">
<path d="M40.5082 17.3334L23.9998 0.854187L7.4915 17.3334C2.9415 21.8834 0.666504 27.95 0.666504 33.7834C0.666504 39.6167 2.9415 45.7709 7.4915 50.3209C12.0415 54.8709 18.0207 57.175 23.9998 57.175C29.979 57.175 35.9582 54.8709 40.5082 50.3209C45.0582 45.7709 47.3332 39.6167 47.3332 33.7834C47.3332 27.95 45.0582 21.8834 40.5082 17.3334ZM6.49984 34.8334C6.529 29 8.30817 25.2959 11.6332 22L23.9998 9.37085L36.3665 22.1459C39.6915 25.4125 41.4707 29 41.4998 34.8334H6.49984Z" fill="white"/>
</svg>
