<svg width="301" height="301" viewBox="0 0 301 301" fill="none" xmlns="http://www.w3.org/2000/svg">
<path d="M266.875 0.875H34.125C15.8375 0.875 0.875 15.8375 0.875 34.125V266.875C0.875 285.162 15.8375 300.125 34.125 300.125H266.875C285.162 300.125 300.125 285.162 300.125 266.875V34.125C300.125 15.8375 285.162 0.875 266.875 0.875ZM266.875 246.875C266.875 257.921 257.921 266.875 246.875 266.875H54.125C43.0793 266.875 34.125 257.921 34.125 246.875V54.125C34.125 43.0793 43.0793 34.125 54.125 34.125H246.875C257.921 34.125 266.875 43.0793 266.875 54.125V246.875Z" fill="white"/>
<path d="M138.031 79.3452H54.9062V104.283H138.031V79.3452Z" fill="white"/>
<path d="M250.25 212.844H167.125V237.781H250.25V212.844Z" fill="white"/>
<path d="M250.25 171.281H167.125V196.219H250.25V171.281Z" fill="white"/>
<path d="M84 250.25H108.938V217H142.188V192.063H108.938V158.812H84V192.063H50.75V217H84V250.25Z" fill="white"/>
<path d="M185.246 133.044L208.687 109.603L232.129 133.044L249.751 115.421L226.31 91.8138L249.751 68.3725L232.129 50.75L208.687 74.1913L185.246 50.75L167.624 68.3725L191.065 91.8138L167.624 115.421L185.246 133.044Z" fill="white"/>
</svg>
