<svg width="48" height="60" viewBox="0 0 48 60" fill="none" xmlns="http://www.w3.org/2000/svg">
<path d="M24.0001 0.833313C8.45425 14.1041 0.666748 25.5667 0.666748 35.25C0.666748 49.775 11.7501 59.1667 24.0001 59.1667C36.2501 59.1667 47.3334 49.775 47.3334 35.25C47.3334 25.5667 39.5459 14.1041 24.0001 0.833313ZM24.0001 53.3333C14.2292 53.3333 6.50008 45.8375 6.50008 35.25C6.50008 28.425 12.1876 19.3833 24.0001 8.59165C35.8126 19.3833 41.5001 28.3958 41.5001 35.25C41.5001 45.8375 33.7709 53.3333 24.0001 53.3333ZM11.8376 35.8333C12.9167 35.8333 13.7917 36.5916 13.9959 37.6417C15.1917 44.1166 20.6459 46.3333 24.6126 46.0125C25.8667 45.9542 26.9167 46.9458 26.9167 48.2C26.9167 49.3666 25.9834 50.3292 24.8167 50.3875C18.6042 50.7667 11.3417 47.2083 9.67925 38.3708C9.44591 37.0583 10.4959 35.8333 11.8376 35.8333Z" fill="white"/>
</svg>
