<svg width="186" height="82" viewBox="0 0 186 82" fill="none" xmlns="http://www.w3.org/2000/svg">
<g clip-path="url(#clip0_201_264)">
<path d="M64.352 21.0252C64.352 18.153 65.0731 15.6779 67.9069 15.1966C68.6566 15.0699 69.417 15.0179 70.1769 15.0413C70.9869 15.0642 72.2083 15.0897 73.2646 15.4105C76.4691 16.3782 80.6435 15.6397 82.713 14.28C83.4367 13.8038 84.6352 13.0068 85.3563 11.7896C87.2049 8.69328 88.0301 3.01237 88.3043 0.669735C88.3168 0.564175 88.3011 0.457196 88.2588 0.35971C88.2166 0.262224 88.1493 0.177724 88.0639 0.11482C87.9784 0.0519167 87.8779 0.0128612 87.7725 0.00164568C87.6671 -0.0095699 87.5606 0.00745284 87.4639 0.0509749C86.2476 0.593347 84.102 1.49475 82.4819 1.90217C78.6731 2.8545 71.8401 -0.0992572 66.6677 4.32629C63.6638 6.89556 62.7065 8.41573 62.4323 9.2382C62.4105 9.30584 62.4113 9.37873 62.4343 9.44594C62.4574 9.51314 62.5016 9.57103 62.5602 9.61092C62.6189 9.65081 62.6889 9.67054 62.7597 9.66715C62.8305 9.66376 62.8982 9.63744 62.9528 9.59214C65.002 7.93192 73.6175 2.84432 79.5364 6.3048C79.6121 6.34802 79.6726 6.41368 79.7095 6.49275C79.7464 6.57183 79.7581 6.66043 79.7428 6.74639C79.7274 6.83235 79.686 6.91144 79.624 6.97281C79.5621 7.03417 79.4827 7.07479 79.3968 7.08908C76.1898 7.59835 66.7007 9.45973 62.7548 12.6579C58.1537 16.3782 57.9303 20.6637 57.9303 20.6637L57.7246 28.5573C57.7246 29.5886 59.9515 30.3856 60.9799 30.3856C62.0108 30.3856 64.7252 29.283 64.7303 28.2492L64.352 21.0252Z" fill="#00B000"/>
<path d="M52.3748 13.8369C49.8 14.5677 46.075 11.4942 44.6708 9.34767C43.2666 7.2011 42.1747 2.83157 42.3855 1.17644C42.394 1.10185 42.4222 1.03088 42.4672 0.970836C42.5121 0.910789 42.5722 0.863826 42.6412 0.834784C42.7103 0.805741 42.7858 0.795665 42.86 0.805589C42.9342 0.815512 43.0044 0.845085 43.0635 0.891254C43.81 1.46418 46.885 3.0531 48.2841 3.03272C51.0544 2.99198 54.9724 3.34338 57.7934 7.23929C59.6801 9.84675 59.7969 11.2523 59.6674 11.8966C59.6542 11.9404 59.6296 11.98 59.5959 12.0109C59.5623 12.0419 59.5209 12.0632 59.4762 12.0726C59.4315 12.082 59.3851 12.0791 59.3418 12.0643C59.2986 12.0494 59.2602 12.0231 59.2306 11.9882C58.253 10.6183 54.5483 5.81843 50.8385 6.27168C50.7911 6.27723 50.7468 6.2986 50.7129 6.33238C50.679 6.36615 50.6574 6.41037 50.6515 6.45793C50.6457 6.50549 50.6559 6.55365 50.6806 6.59468C50.7053 6.63571 50.7431 6.66723 50.7878 6.68419C52.1589 7.21893 55.2822 8.78238 58.3927 12.7343C58.7355 13.1697 59.2052 14.0253 58.6644 14.1221C58.6593 14.1221 55.4396 12.9686 52.3748 13.8369Z" fill="#00B000"/>
<path d="M116.615 70.0398C113.081 70.0398 110.245 68.916 108.109 66.6684C105.973 64.4209 104.907 61.4196 104.912 57.6645C104.912 53.9112 105.954 50.9363 108.038 48.7396C110.122 46.543 112.904 45.4455 116.384 45.4472C118.651 45.4472 120.682 46.2671 122.478 47.907V37.5128C122.47 37.0901 122.549 36.6703 122.713 36.2807C122.877 35.8911 123.12 35.5405 123.428 35.2516C123.757 34.945 124.143 34.7066 124.564 34.5502C124.985 34.3937 125.432 34.3223 125.881 34.34C126.823 34.3004 127.743 34.627 128.451 35.2516C128.762 35.5226 129.012 35.8579 129.182 36.2345C129.353 36.6111 129.44 37.0202 129.438 37.4338V66.946C129.449 67.3664 129.365 67.7839 129.195 68.168C129.024 68.5521 128.77 68.8932 128.451 69.1664C127.733 69.7696 126.816 70.0812 125.881 70.0398C124.188 70.0398 123.106 69.2988 122.636 67.8168C120.992 69.2988 118.985 70.0398 116.615 70.0398ZM117.177 63.623C117.903 63.6468 118.625 63.5057 119.29 63.2103C119.954 62.9149 120.543 62.4727 121.013 61.9169C121.988 60.7813 122.476 59.3672 122.476 57.6747C122.476 55.9279 121.988 54.53 121.013 53.4707C120.038 52.4114 118.758 51.8844 117.177 51.8844C115.541 51.8844 114.235 52.4131 113.259 53.4707C112.283 54.53 111.796 55.9279 111.796 57.6747C111.796 59.3723 112.283 60.7864 113.259 61.9169C114.234 63.0475 115.54 63.6162 117.177 63.623Z" fill="#00B000"/>
<path d="M12.6581 40.4742C10.334 40.4931 8.02683 40.076 5.85559 39.2444C3.74466 38.4244 2.08316 37.327 0.87111 35.9519C0.304216 35.3533 -0.0081402 34.557 0.000161333 33.7315C-0.000989572 33.2862 0.0884963 32.8454 0.263142 32.436C0.437787 32.0267 0.693916 31.6573 1.01585 31.3507C1.3328 31.0199 1.71396 30.7578 2.13583 30.5804C2.55769 30.403 3.01131 30.3142 3.46873 30.3194C3.89431 30.3132 4.31666 30.3945 4.70971 30.5583C5.10276 30.7221 5.45817 30.9649 5.75402 31.2717C6.73477 32.1679 7.89472 32.8441 9.15657 33.2553C10.4522 33.718 11.8161 33.959 13.1914 33.9683C14.4376 33.9999 15.6682 33.6843 16.7463 33.0567C17.7467 32.449 18.2478 31.4839 18.2495 30.1615C18.2665 29.6473 18.1474 29.1378 17.9044 28.6847C17.6613 28.2316 17.3029 27.8512 16.8656 27.5821C15.9414 26.976 14.3984 26.4872 12.2366 26.1154C8.38719 25.4805 5.48656 24.4093 3.53475 22.9019C1.58294 21.3945 0.616344 19.2657 0.634965 16.5157C0.634965 13.5551 1.7683 11.1887 4.03497 9.41644C6.30165 7.64419 9.28099 6.75806 12.973 6.75806C16.7717 6.75806 19.8052 7.7367 22.0736 9.69399C22.9674 10.4358 23.4151 11.3084 23.4168 12.3116C23.4189 12.7253 23.3317 13.1345 23.1612 13.5112C22.9907 13.8879 22.7409 14.2231 22.429 14.4939C21.799 15.0905 20.962 15.4175 20.0955 15.4055C19.4219 15.4104 18.7616 15.2174 18.1962 14.8503C16.3124 13.6194 14.1143 12.9598 11.8659 12.9508C10.708 12.9105 9.5606 13.1841 8.54462 13.7427C8.12057 13.9734 7.76962 14.3189 7.5317 14.7398C7.29378 15.1607 7.17845 15.6401 7.19883 16.1235C7.19883 17.2337 7.89797 18.1063 9.29623 18.7412C10.6945 19.3761 12.7377 19.9575 15.4259 20.4854C16.9408 20.7594 18.4157 21.2221 19.8162 21.863C21.2649 22.5238 22.519 23.5481 23.4574 24.8371C24.4325 26.1612 24.92 27.9598 24.92 30.2328C24.92 33.2477 23.7731 35.7092 21.4794 37.6172C19.1856 39.5253 16.2452 40.4776 12.6581 40.4742Z" fill="#00B000"/>
<path d="M30.3239 42.1268C29.3999 42.1569 28.4968 41.8472 27.7847 41.256C27.4565 40.9878 27.1934 40.6484 27.0152 40.2632C26.8371 39.8781 26.7485 39.4575 26.7563 39.033V22.6778C26.7544 22.2639 26.8419 21.8545 27.0129 21.4778C27.1838 21.1011 27.4342 20.766 27.7466 20.4956C28.4536 19.8703 29.3745 19.5436 30.3163 19.584C31.5301 19.584 32.4518 20.0092 33.0841 20.8572C33.3247 21.1262 33.4887 21.4551 33.5589 21.8095C34.2411 20.9806 35.1119 20.3283 36.0981 19.9074C37.2188 19.418 38.4308 19.174 39.653 19.1919C43.2384 19.1919 45.8224 20.3802 47.4052 22.7568C48.3385 21.6058 49.5319 20.6945 50.8865 20.0984C52.2335 19.4954 53.6925 19.1848 55.1676 19.1868C58.1199 19.1868 60.4534 20.0593 62.1682 21.8044C63.883 23.5495 64.7404 26.3259 64.7404 30.1335V54.4053C64.7472 54.8082 64.6614 55.2072 64.4897 55.5715C64.3179 55.9358 64.0649 56.2556 63.7501 56.506C63.0478 57.0772 62.1629 57.374 61.2592 57.3412C60.3483 57.3731 59.4587 57.0614 58.7657 56.4678C58.4463 56.1945 58.1919 55.853 58.021 55.4684C57.8501 55.0838 57.767 54.6658 57.7779 54.2449V31.0069C57.7779 29.0513 57.4393 27.65 56.7622 26.8029C56.0851 25.9558 55.1092 25.5314 53.8345 25.5297C52.57 25.5297 51.5543 25.9134 50.7875 26.6807C50.0312 27.4331 49.4969 28.3804 49.2436 29.418V40.8434C49.2503 41.2461 49.1647 41.6449 48.9935 42.0091C48.8222 42.3733 48.5699 42.6932 48.2559 42.9442C47.5529 43.5141 46.6682 43.8098 45.7649 43.7768C44.8544 43.8094 43.9648 43.4987 43.2714 42.906C42.952 42.6326 42.6976 42.2912 42.5267 41.9066C42.3558 41.522 42.2728 41.1039 42.2836 40.683V31.0069C42.2836 29.0513 41.9451 27.65 41.2679 26.8029C40.5908 25.9558 39.6149 25.5314 38.3402 25.5297C37.7879 25.5111 37.2375 25.6034 36.7212 25.801C36.2049 25.9987 35.7332 26.2977 35.3338 26.6807C34.57 27.4018 34.0221 28.3225 33.7519 29.3391V38.9515C33.7596 39.3778 33.6751 39.8007 33.5042 40.1911C33.3332 40.5814 33.0798 40.93 32.7616 41.2127C32.0999 41.8259 31.2245 42.1542 30.3239 42.1268Z" fill="#00B000"/>
<path d="M80.9536 43.7793C77.419 43.7793 74.5582 42.6555 72.3711 40.408C70.184 38.1604 69.0896 35.1591 69.0879 31.4041C69.0879 27.6491 70.1561 24.6741 72.2924 22.4791C74.4287 20.2842 77.2371 19.1867 80.7175 19.1867C83.1397 19.1631 85.4721 20.1046 87.2026 21.8044C87.421 21.1626 87.8372 20.6071 88.391 20.218C88.99 19.7889 89.7118 19.5664 90.4477 19.5839C91.3902 19.5445 92.3115 19.871 93.02 20.4955C93.3334 20.7656 93.5849 21.1004 93.7572 21.4771C93.9294 21.8538 94.0184 22.2634 94.0179 22.6778V40.6855C94.0282 41.1063 93.9449 41.5242 93.774 41.9087C93.6032 42.2933 93.3491 42.6348 93.0301 42.9085C92.3108 43.5098 91.3935 43.8204 90.4579 43.7793C88.716 43.7793 87.6343 43.0154 87.2128 41.4876C85.52 43.0154 83.4336 43.7793 80.9536 43.7793ZM81.5072 37.3549C83.2 37.3549 84.5449 36.7862 85.542 35.6488C86.539 34.5115 87.0401 33.0966 87.0452 31.4041C87.0452 29.6573 86.5441 28.2559 85.542 27.2001C84.5398 26.1442 83.1949 25.6145 81.5072 25.6111C79.8719 25.6111 78.5405 26.1408 77.513 27.2001C76.4855 28.2593 75.9717 29.6607 75.9717 31.4041C75.9717 33.1016 76.4855 34.5166 77.513 35.6488C78.0146 36.2078 78.632 36.6501 79.3219 36.9448C80.0119 37.2395 80.7577 37.3795 81.5072 37.3549Z" fill="#00B000"/>
<path d="M103.499 43.5426C102.575 43.5717 101.672 43.2611 100.96 42.6692C100.633 42.4011 100.372 42.0617 100.196 41.6769C100.02 41.2921 99.9336 40.872 99.9442 40.4487V22.6778C99.9423 22.2639 100.03 21.8545 100.201 21.4778C100.372 21.1011 100.622 20.766 100.935 20.4956C101.641 19.8703 102.562 19.5436 103.504 19.584C104.36 19.55 105.196 19.8482 105.838 20.4166C106.426 20.9386 106.806 21.657 106.907 22.4384C107.521 21.5103 108.331 20.7281 109.278 20.1467C110.22 19.5301 111.32 19.1994 112.445 19.1944C113.111 19.1918 113.776 19.2722 114.423 19.4338C115.145 19.6349 115.783 20.0656 116.241 20.6611C116.713 21.2588 116.965 22.0018 116.954 22.7644C116.972 23.2696 116.886 23.7732 116.702 24.2439C116.518 24.7147 116.24 25.1427 115.885 25.5017C115.578 25.8428 115.184 26.0939 114.745 26.2284C114.306 26.3629 113.84 26.3757 113.394 26.2656C112.719 26.1068 112.028 26.0265 111.335 26.0262C110.773 26.0115 110.213 26.1174 109.695 26.337C109.176 26.5566 108.711 26.8847 108.329 27.2994C107.538 28.1482 107.064 29.867 106.907 32.4558V40.3902C106.915 40.8165 106.83 41.2394 106.659 41.6297C106.488 42.0201 106.235 42.3687 105.916 42.6513C105.256 43.2508 104.39 43.5703 103.499 43.5426Z" fill="#00B000"/>
<path d="M130.396 43.7793C128.129 43.7793 126.257 43.1181 124.779 41.7957C123.301 40.4733 122.563 38.4362 122.565 35.6845V27.1186C122.565 26.5915 122.311 26.3266 121.772 26.3266H120.587C119.637 26.3266 118.925 26.0355 118.451 25.4533C117.959 24.8211 117.706 24.0343 117.738 23.2328C117.703 22.3941 117.954 21.5685 118.451 20.8927C118.926 20.2867 119.637 19.9811 120.587 19.9811H121.772C122.298 19.9811 122.565 19.7265 122.565 19.1867V13.3174C122.559 12.8907 122.64 12.4673 122.804 12.0732C122.967 11.6792 123.209 11.3227 123.514 11.0257C123.836 10.7077 124.22 10.4593 124.641 10.2955C125.063 10.1317 125.513 10.0561 125.965 10.0733C126.882 10.0437 127.776 10.3713 128.458 10.9875C128.781 11.283 129.037 11.6451 129.207 12.0491C129.378 12.453 129.459 12.8891 129.446 13.3276V19.1969C129.446 19.7265 129.71 19.9913 130.238 19.9913H133.163C133.585 19.9819 134.003 20.0616 134.392 20.2252C134.78 20.3889 135.13 20.6328 135.418 20.9411C135.713 21.2441 135.945 21.6026 136.101 21.9959C136.257 22.3892 136.334 22.8096 136.327 23.2328C136.34 23.6463 136.266 24.0578 136.109 24.4405C135.953 24.8231 135.717 25.1682 135.418 25.4533C135.106 25.7464 134.739 25.9745 134.339 26.1244C133.938 26.2743 133.512 26.3431 133.085 26.3266H130.238C129.71 26.3266 129.446 26.5906 129.446 27.1186V34.5768C129.446 35.5291 129.615 36.1903 129.954 36.5604C130.119 36.7414 130.322 36.8846 130.547 36.9804C130.773 37.0762 131.017 37.1222 131.261 37.1155C131.689 37.0841 132.114 37.0177 132.531 36.9169C132.921 36.8224 133.317 36.756 133.717 36.7183C134.12 36.713 134.52 36.7953 134.889 36.9597C135.257 37.1241 135.586 37.3666 135.852 37.6706C136.362 38.2394 136.666 38.9631 136.716 39.7259C136.766 40.4887 136.559 41.2463 136.129 41.8772C135.674 42.5034 135.018 42.9531 134.27 43.1504C133.622 43.3525 132.961 43.5116 132.292 43.6265C131.665 43.7292 131.031 43.7803 130.396 43.7793Z" fill="#00B000"/>
<path d="M36.1532 69.4796C33.2277 69.5159 30.3452 68.7709 27.8017 67.3211C25.2582 65.8712 23.1452 63.7688 21.6796 61.2295C20.2018 58.6831 19.4629 55.7973 19.4629 52.5719C19.4629 49.3465 20.1916 46.4836 21.6492 43.9831C23.093 41.4779 25.1833 39.4091 27.7001 37.9941C30.2816 36.5138 33.2085 35.7737 36.4807 35.7737C38.6091 35.7458 40.7296 36.0403 42.7703 36.647C44.6535 37.2401 46.4077 38.1853 47.9402 39.4327C48.3474 39.7513 48.6744 40.1612 48.8949 40.6296C49.1154 41.0979 49.2233 41.6116 49.2098 42.1293C49.2098 42.5566 49.1258 42.9796 48.9627 43.3743C48.7996 43.769 48.5605 44.1275 48.2592 44.4295C47.9578 44.7315 47.6 44.971 47.2063 45.1342C46.8126 45.2975 46.3907 45.3813 45.9647 45.381C45.3857 45.381 44.7264 45.1434 43.9866 44.668C42.8681 43.9491 41.6764 43.3516 40.4317 42.8856C39.1895 42.4316 37.8765 42.2031 36.5544 42.2108C33.6546 42.2108 31.2686 43.1759 29.3963 45.106C27.5241 47.0361 26.5879 49.5358 26.5879 52.605C26.5879 55.7777 27.4843 58.3164 29.277 60.2211C31.0696 62.1258 33.3642 63.0773 36.1608 63.0756C38.7423 63.0756 40.8651 62.5604 42.5291 61.5299C44.1932 60.4995 45.0201 59.1601 45.0099 57.5118C45.0099 57.0891 44.8246 56.8778 44.4564 56.8778H39.1697C38.7301 56.8987 38.2907 56.8323 37.8767 56.6824C37.4628 56.5325 37.0824 56.3021 36.7575 56.0044C36.4542 55.7076 36.2165 55.3503 36.0599 54.9554C35.9033 54.5606 35.8313 54.1372 35.8485 53.7127C35.8357 53.2989 35.9101 52.8871 36.0667 52.504C36.2234 52.121 36.4587 51.7754 36.7575 51.4897C37.4147 50.8903 38.2823 50.5771 39.1697 50.6188H47.8742C49.2978 50.6188 50.3262 50.949 50.9593 51.6094C51.5924 52.2697 51.909 53.3672 51.909 54.9018C51.909 59.3443 50.4701 62.888 47.5923 65.5328C44.7145 68.1776 40.9015 69.4932 36.1532 69.4796Z" fill="#00B000"/>
<path d="M69.387 70.0398C65.8524 70.0398 62.9916 68.916 60.8045 66.6684C58.6174 64.4208 57.5204 61.4195 57.5137 57.6645C57.5137 53.9112 58.5818 50.9362 60.7182 48.7396C62.8545 46.5429 65.6637 45.4454 69.1458 45.4471C71.5676 45.4255 73.8994 46.3667 75.631 48.0648C75.8468 47.4224 76.2624 46.8663 76.8168 46.4784C77.4162 46.05 78.1377 45.8276 78.8735 45.8444C79.8162 45.8036 80.738 46.1302 81.4458 46.756C81.7574 47.0269 82.007 47.3622 82.1774 47.7388C82.3479 48.1155 82.4353 48.5246 82.4335 48.9382V66.9459C82.4438 67.3664 82.3605 67.7839 82.1896 68.168C82.0188 68.5521 81.7646 68.8932 81.4458 69.1664C80.7273 69.7695 79.8096 70.0811 78.8735 70.0398C77.1333 70.0398 76.0525 69.2759 75.631 67.7481C73.9432 69.2776 71.8619 70.0415 69.387 70.0398ZM69.9355 63.623C71.6283 63.623 72.9732 63.0543 73.9703 61.9169C74.9674 60.7795 75.471 59.3621 75.4811 57.6645C75.4811 55.9177 74.9733 54.5198 73.9779 53.4605C72.9826 52.4012 71.6292 51.8741 69.9431 51.8741C68.3079 51.8741 66.9765 52.4029 65.9489 53.4605C64.9206 54.5198 64.4051 55.9177 64.4051 57.6645C64.3568 59.225 64.9097 60.7442 65.9489 61.9067C66.4485 62.467 67.0641 62.9109 67.7528 63.2074C68.4414 63.5038 69.1864 63.6457 69.9355 63.623Z" fill="#00B000"/>
<path d="M91.9276 69.8004C91.0036 69.8306 90.1005 69.5208 89.3884 68.9296C89.0592 68.6623 88.7954 68.323 88.6171 67.9377C88.4389 67.5524 88.3509 67.1313 88.36 66.7066V48.9382C88.3581 48.5244 88.4456 48.115 88.6165 47.7382C88.7875 47.3615 89.0378 47.0264 89.3503 46.756C90.0566 46.1295 90.978 45.8027 91.92 45.8444C92.7757 45.8104 93.6116 46.1086 94.2535 46.6771C94.8418 47.2004 95.2215 47.9194 95.3225 48.7014C95.9352 47.7718 96.745 46.9893 97.6941 46.4097C98.6386 45.7871 99.743 45.4528 100.873 45.4472C101.54 45.4449 102.204 45.5244 102.851 45.684C103.574 45.887 104.213 46.3183 104.672 46.9139C105.143 47.512 105.394 48.2549 105.383 49.0172C105.401 49.5225 105.315 50.026 105.131 50.4968C104.947 50.9676 104.669 51.3956 104.314 51.7545C104.006 52.0955 103.612 52.3467 103.174 52.4812C102.735 52.6157 102.268 52.6285 101.823 52.5184C101.149 52.361 100.459 52.2807 99.7662 52.279C99.2035 52.2641 98.6442 52.37 98.1256 52.5896C97.6071 52.8091 97.1414 53.1374 96.7597 53.5522C95.9709 54.401 95.4969 56.1198 95.3378 58.7086V66.6277C95.3459 67.054 95.2615 67.477 95.0905 67.8674C94.9195 68.2579 94.666 68.6064 94.3475 68.8888C93.6902 69.4975 92.8219 69.8246 91.9276 69.8004Z" fill="#00B000"/>
<path d="M146.526 70.0398C142.939 70.0398 139.92 68.9686 137.468 66.8263C135.017 64.684 133.791 61.7353 133.789 57.9803C133.789 54.0759 134.989 51.0092 137.39 48.7803C139.79 46.5514 142.809 45.4404 146.447 45.4472C149.029 45.4472 151.164 45.9233 152.853 46.8757C154.428 47.7201 155.742 48.9824 156.65 50.5246C157.479 51.9443 157.917 53.5595 157.919 55.2048C157.919 57.9548 156.706 59.3299 154.281 59.3299H141.145C140.724 59.3299 140.513 59.5947 140.513 60.1243C140.513 61.3415 141.186 62.3065 142.532 63.0195C143.936 63.7472 145.499 64.1146 147.079 64.089C148.149 64.0866 149.213 63.9402 150.243 63.6535C151.238 63.392 152.177 62.9483 153.011 62.3447C153.493 61.9903 154.074 61.7962 154.672 61.7896C155.052 61.7822 155.43 61.8561 155.781 62.0062C156.131 62.1563 156.445 62.3793 156.703 62.6605C156.97 62.9323 157.181 63.2545 157.324 63.6085C157.466 63.9625 157.537 64.3413 157.533 64.723C157.533 65.6753 157.032 66.575 156.03 67.4221C155.08 68.2149 153.696 68.8489 151.878 69.3243C150.132 69.7915 148.333 70.032 146.526 70.0398ZM150.642 54.7286C150.789 54.7216 150.935 54.695 151.076 54.6497C151.259 54.5987 151.353 54.4129 151.353 54.0946C151.353 53.3001 150.865 52.5727 149.89 51.9123C148.915 51.252 147.662 50.9218 146.132 50.9218C144.497 50.9218 143.166 51.2783 142.138 51.9913C141.11 52.7043 140.596 53.4317 140.594 54.1735C140.594 54.5453 140.805 54.7286 141.229 54.7286H150.642Z" fill="#00B000"/>
<path d="M182.518 70.0398C181.607 70.0728 180.717 69.7611 180.025 69.1664C179.706 68.8932 179.452 68.5521 179.281 68.168C179.11 67.7839 179.027 67.3664 179.037 66.9459V57.2571C179.037 55.3015 178.602 53.9002 177.732 53.0531C177.31 52.6371 176.809 52.3101 176.258 52.0914C175.708 51.8728 175.119 51.7668 174.528 51.7799C173.923 51.7613 173.321 51.8643 172.757 52.083C172.193 52.3017 171.679 52.6315 171.244 53.0531C170.408 53.8357 169.84 54.8633 169.622 55.989V66.6277C169.63 67.0537 169.546 67.4764 169.375 67.8668C169.204 68.2571 168.952 68.6058 168.634 68.8888C167.978 69.4951 167.113 69.822 166.222 69.8004C165.298 69.831 164.394 69.5212 163.683 68.9296C163.356 68.661 163.094 68.3212 162.918 67.9359C162.742 67.5507 162.656 67.1302 162.667 66.7066V48.9382C162.664 48.5245 162.752 48.1151 162.922 47.7384C163.093 47.3617 163.343 47.0265 163.655 46.756C164.362 46.13 165.284 45.8033 166.227 45.8444C166.994 45.8203 167.747 46.0582 168.362 46.5192C168.928 46.9478 169.343 47.5451 169.548 48.2252C170.972 46.3749 173.134 45.4488 176.036 45.4471C178.988 45.4471 181.388 46.3197 183.234 48.0648C185.081 49.8099 186.005 52.5862 186.005 56.3939V67.1038C186.012 67.5071 185.926 67.9065 185.754 68.2712C185.582 68.6359 185.329 68.9561 185.014 69.2071C184.31 69.7782 183.423 70.074 182.518 70.0398Z" fill="#00B000"/>
<path d="M88.3855 67.0096L88.4135 72.306C88.4185 72.6959 88.3461 73.0828 88.2005 73.4443C88.0548 73.8057 87.8388 74.1345 87.5651 74.4114C87.2914 74.6882 86.9654 74.9076 86.6062 75.0568C86.247 75.206 85.8618 75.2819 85.4731 75.2802H85.2725C84.5175 75.243 83.8055 74.9167 83.2834 74.3685C82.7613 73.8203 82.469 73.0921 82.4666 72.3341L82.4108 67.1522L75.6818 67.8398L75.6133 70.6993L75.6641 72.4817C75.7275 75.0198 76.7745 77.4332 78.5831 79.2098C80.3917 80.9864 82.8195 81.9863 85.3512 81.9974H85.6051C90.9095 81.9567 95.1602 77.5566 95.1754 72.2373V69.3854L95.3125 67.1115L88.3855 67.0096Z" fill="#00B000"/>
</g>
<defs>
<clipPath id="clip0_201_264">
<rect width="186" height="82" fill="white"/>
</clipPath>
</defs>
</svg>
