<?xml version="1.0" encoding="utf-8"?>
<!-- Generator: Adobe Illustrator 19.0.0, SVG Export Plug-In . SVG Version: 6.00 Build 0)  -->
<svg version="1.1" id="Layer_1" xmlns="http://www.w3.org/2000/svg" xmlns:xlink="http://www.w3.org/1999/xlink" x="0px" y="0px"
	 viewBox="0 0 510.2 75.9" style="enable-background:new 0 0 510.2 75.9;" xml:space="preserve" width="138" height="21">
<style type="text/css">
	.st0{fill-rule:evenodd;clip-rule:evenodd;fill:#ED1C24;}
</style>
<path class="st0" d="M85.8,48.4c1.3,10.6-1.7,20.6-16.1,24.8C63,75.1,51.8,76,41.9,75.8c-16.8-0.3-39.6-2-41.9-2.2l0.1-28.1
	c12.7,3.2,32.1,8,43.3,9.3c1.2,0.1,8,1.4,11.6,0.5c1.6-0.4,2.2-2.9,1.5-4.4c-0.4-0.8-1.3-1.4-2.1-1.7c-1.2-0.5-6.6-1.9-15.1-4.4
	C25.5,41,16.2,36.7,10.2,33c-6-3.7-9.5-7.4-9.5-13.2c0-8.6,5.5-13.6,16.1-17C22.6,1.1,31.7,0,41.7,0h0.6c0.5,0,0.9,0,1.4,0l6.8,0.1
	c4.4,0.1,424.4,14,424.5,14l2,3.7c0,0-432.7-2.5-433.3-2.5c-1.2,0-11.5,0.3-14.6,1.6c-1.8,0.8-1.7,2.8-0.5,3.6
	c4.1,2.5,10,3.6,16.4,5C62,29.4,84,34.5,85.8,48.4z M155.5,52.2c-5,2.9-12.5,4.3-22.7,4.3h-4.1H119v18.7H93.6V24.8h35.1h6.9
	c9.1,0,16,1.3,20.5,4c4.5,2.7,6.8,6.5,6.8,11.5C162.9,45.4,160.5,49.4,155.5,52.2z M138.4,40.7c0-1.6-0.9-2.9-2.6-4
	c-1.4-0.9-3.7-1.4-7.1-1.6c-0.8,0-1.6-0.1-2.5-0.1H119v11.3h6.2c1.3,0,2.4,0,3.5-0.1c3-0.2,5.3-0.7,6.7-1.5
	C137.4,43.7,138.4,42.3,138.4,40.7z M216.5,24.8l30.7,50.5h-26.4l-4-8.3h-14.3H188l-4,8.3h-25.8l30.7-50.5h13.5H216.5z M211.5,56
	l-9-18.1l0-0.1l-9,18.1h9H211.5z M281.9,41.8l-16.5-17h-28l31.8,29.3v21.1h25.3V54.1l31.8-29.3h-27.9L281.9,41.8z M419.8,24.8h-33.6
	l-26.5,19.1V24.8h-25.3v50.5h25.3V62.9l13.1-8.4L390,75.3h31.1L390,43.8L419.8,24.8z M510.2,75.3h-26.4l-4-8.3h-14.3H451l-4,8.3
	h-25.8L452,24.8h13.5h14L510.2,75.3z M474.5,56l-9-18.1l0-0.1l-9,18.1h9H474.5z"/>
</svg>
