<?xml version="1.0" encoding="utf-8"?>
<!-- Generator: Adobe Illustrator 21.1.0, SVG Export Plug-In . SVG Version: 6.00 Build 0)  -->
<svg version="1.1" id="Layer_1" xmlns="http://www.w3.org/2000/svg" xmlns:xlink="http://www.w3.org/1999/xlink" x="0px" y="0px"
	 viewBox="0 0 300 95" style="enable-background:new 0 0 300 95;" xml:space="preserve">
<style type="text/css">
	.st0{fill:#29254E;}
	.st1{fill:#B08045;}
	.st2{fill:#8C6938;}
</style>
<g>
	<g>
		<path class="st0" d="M121.6,20.4h3.5l9.8,25.1h-4.6l-2.1-5.7h-9.9l-2.1,5.7h-4.5L121.6,20.4z M126.7,36l-3.5-10.2L119.6,36H126.7z
			"/>
		<path class="st0" d="M143.6,20.4h7.9c4.3,0,8.4,1.9,8.4,7.2c0,3.6-2,6-5.2,6.8l6.1,11.1h-4.9l-5.3-10.6h-3v10.6h-4.1V20.4z
			 M151,31.3c2.3,0,4.9-0.6,4.9-3.6c0-2.7-2.4-3.4-4.5-3.4h-3.7v7.1H151z"/>
		<path class="st0" d="M170.3,20.4h6.3l5.9,17.8h0.1l5.9-17.8h6.4v25.1h-4V25.4h-0.1l-6.9,20.2H181l-6.8-20.2h-0.1v20.2h-3.9V20.4z"
			/>
		<path class="st0" d="M206.4,20.4h15.1v3.9h-11v6.4h10.5v3.8h-10.5v7.1H222v4h-15.7V20.4z"/>
		<path class="st0" d="M232.4,20.4h5.4l10.6,18.8h0.1V20.4h4.1v25.1h-5.2l-10.8-19.4h-0.1v19.4h-4.1V20.4z"/>
		<path class="st0" d="M264,20.4h4.1v25.1H264V20.4z"/>
		<path class="st0" d="M286.7,20.4h3.5l9.8,25.1h-4.6l-2.1-5.7h-9.9l-2.1,5.7h-4.5L286.7,20.4z M291.8,36l-3.5-10.2L284.7,36H291.8z
			"/>
	</g>
	<g>
		<path class="st1" d="M133.1,67.9v-2.4h1.9v-3.5h2.7v3.5h2.7v2.4h-2.7v5.6c0,1.1,0.2,1.8,1.4,1.8c0.4,0,0.8-0.1,1.2-0.2l0.1,2.3
			c-0.5,0.2-1.2,0.3-1.8,0.3c-2.9,0-3.5-1.9-3.5-4.2v-5.6H133.1z"/>
		<path class="st1" d="M144.6,65.5h2.6v2h0c0.6-1.4,1.7-2.3,3.2-2.3c0.2,0,0.5,0,0.7,0.1V68c-0.4-0.1-0.6-0.1-0.8-0.1
			c-2.4,0-2.9,2.3-2.9,3.2v6.4h-2.7V65.5z"/>
		<path class="st1" d="M161.5,76L161.5,76c-0.6,1-1.9,1.8-3.4,1.8c-1.7,0-4.1-0.9-4.1-3.7c0-3.6,4.1-4.1,7.4-4.1v-0.3
			c0-1.5-1.1-2.2-2.5-2.2c-1.2,0-2.3,0.6-3,1.4l-1.4-1.8c1.2-1.2,2.9-1.9,4.6-1.9c3.9,0,4.8,2.6,4.8,5v7.3h-2.5V76z M161.4,72h-0.6
			c-1.7,0-4.1,0.2-4.1,2c0,1.1,1,1.5,1.9,1.5c1.9,0,2.8-1.2,2.8-3.1V72z"/>
		<path class="st1" d="M180.4,77.5h-2.6v-1.8h0c-0.7,1.4-2.2,2.1-3.7,2.1c-3.3,0-5.3-2.9-5.3-6.4c0-3.5,2.2-6.3,5.3-6.3
			c2,0,3.1,1.1,3.6,1.9h0.1v-8.4h2.7V77.5z M174.6,75.4c2,0,3.2-2,3.2-3.8c0-1.9-1.2-3.9-3.2-3.9c-2.1,0-3.1,2-3.1,3.8
			S172.5,75.4,174.6,75.4z"/>
		<path class="st1" d="M196.3,72.5h-8.2c0.1,1.7,1.5,2.9,3.1,2.9c1.4,0,2.3-0.6,2.9-1.5l1.8,1.6c-1.1,1.6-2.6,2.4-4.6,2.4
			c-3.3,0-5.8-2.4-5.8-6.3c0-3.9,2.5-6.4,5.7-6.4c3,0,5.2,2.2,5.2,6.5C196.3,71.9,196.3,72.2,196.3,72.5z M193.6,70.3
			c0-1.5-0.8-2.9-2.6-2.9c-1.6,0-2.9,1.2-3,2.9H193.6z"/>
		<path class="st1" d="M219.1,70v7.5h-2.7v-6.6c0-1.4-0.3-3.2-2-3.2c-1.7,0-2.6,1.6-2.6,3.2v6.5h-2.7V58.6h2.7v8.6h0
			c0.4-1,1.6-2,3.2-2C217.9,65.2,219.1,67.6,219.1,70z"/>
		<path class="st1" d="M229.8,65.2c3.3,0,5.9,2.5,5.9,6.3s-2.6,6.4-5.9,6.4c-3.3,0-5.9-2.6-5.9-6.4S226.5,65.2,229.8,65.2z
			 M229.8,75.4c2.1,0,3.1-2,3.1-3.9s-1-3.8-3.1-3.8s-3.1,2-3.1,3.8S227.6,75.4,229.8,75.4z"/>
		<path class="st1" d="M250.4,77.5h-2.6v-1.9h0c-0.5,1.2-1.8,2.3-3.4,2.3c-2.8,0-4-2.4-4-4.8v-7.5h2.7v6.6c0,1.4,0.3,3.2,2,3.2
			c1.7,0,2.5-1.6,2.5-3.2v-6.6h2.7V77.5z"/>
		<path class="st1" d="M261.9,68.7c-0.5-0.7-1.4-1.3-2.4-1.3c-0.9,0-1.7,0.3-1.7,1.3c0,0.9,0.8,1.2,2.3,1.6c1.6,0.4,3.5,1.2,3.5,3.6
			c0,2.9-2.1,4-4.5,4c-1.7,0-3.4-0.7-4.4-2l1.8-1.8c0.6,0.8,1.6,1.5,2.8,1.5c0.8,0,1.7-0.3,1.7-1.4c0-1-0.8-1.3-2.5-1.7
			c-1.6-0.4-3.2-1.1-3.2-3.4c0-2.7,2.2-3.8,4.3-3.8c1.6,0,3.2,0.6,4.1,1.8L261.9,68.7z"/>
		<path class="st1" d="M278.5,72.5h-8.2c0.1,1.7,1.5,2.9,3.1,2.9c1.4,0,2.3-0.6,2.9-1.5l1.8,1.6c-1.1,1.6-2.6,2.4-4.6,2.4
			c-3.3,0-5.8-2.4-5.8-6.3c0-3.9,2.5-6.4,5.7-6.4c3,0,5.2,2.2,5.2,6.5C278.5,71.9,278.5,72.2,278.5,72.5z M275.8,70.3
			c0-1.5-0.8-2.9-2.6-2.9c-1.6,0-2.9,1.2-3,2.9H275.8z"/>
	</g>
	<g>
		<g>
			<path class="st1" d="M34.8,93H4c-1.4,0-2.7-0.7-3.4-1.9c-0.7-1.2-0.8-2.6-0.2-3.9C0.7,86.5,9,69.6,29.1,59.9
				c6.5-3.1,12.9-4.7,18.8-5.2l-13-22.1c-0.8-1.3-0.7-2.9,0-4.2L49.8,3.9c0.7-1.2,2-1.9,3.4-1.9c0,0,0,0,0,0c1.4,0,2.7,0.7,3.4,1.9
				L86,51.2c1.2,1.9,0.6,4.4-1.3,5.6c-1.9,1.2-4.4,0.6-5.6-1.3L53.3,13.8L43.1,30.5l14.1,24c8.7,0.6,15.8,3,19.6,4.6
				c13.1,5.5,23.1,14.9,29.6,28c0.6,1.3,0.6,2.7-0.2,3.9s-2,1.9-3.4,1.9H72.8c-1.4,0-2.8-0.8-3.5-2L52.5,62.5
				c-6.1,0.1-12.9,1.3-19.9,4.7c-10.6,5.1-17.4,12.6-21.2,17.8h16.3l-3.2-5.5c-1.1-1.9-0.5-4.4,1.4-5.5c1.9-1.1,4.4-0.5,5.5,1.4
				l6.8,11.6c0.7,1.3,0.7,2.8,0,4.1C37.6,92.2,36.2,93,34.8,93z M75.1,84.9h20.7c-5.5-8.3-12.9-14.4-22.1-18.3
				c-2.4-1-6.4-2.4-11.3-3.3L75.1,84.9z"/>
		</g>
		<path class="st2" d="M67.2,71.4l-4.8-8.1c-3.6-0.9-9.9-0.8-9.9-0.8l5.2,8.9H67.2z"/>
		<circle class="st0" cx="31.4" cy="47.4" r="4.9"/>
	</g>
</g>
</svg>
