<svg width="24" height="24" viewBox="0 0 24 24" fill="none" xmlns="http://www.w3.org/2000/svg">
<path d="M23.25 4.1875V19.8125C23.25 21.7062 21.7062 23.25 19.8125 23.25H16.375V14.5H18.6375C18.9562 14.5 19.225 14.2625 19.2625 13.95L19.4938 12.075C19.5188 11.9 19.4625 11.7188 19.3438 11.5875C19.225 11.45 19.0562 11.375 18.875 11.375H16.375V9.1875C16.375 8.5 16.9375 7.9375 17.625 7.9375H18.875C19.2188 7.9375 19.5 7.65625 19.5 7.3125V5.2C19.5 4.88125 19.25 4.6125 18.9312 4.58125C18.8937 4.575 18.0125 4.5 16.8937 4.5C14.1438 4.5 12.625 6.1375 12.625 9.10625V11.375H10.125C9.78125 11.375 9.5 11.6562 9.5 12V13.875C9.5 14.2188 9.78125 14.5 10.125 14.5H12.625V23.25H4.1875C2.29375 23.25 0.75 21.7062 0.75 19.8125V4.1875C0.75 2.29375 2.29375 0.75 4.1875 0.75H19.8125C21.7062 0.75 23.25 2.29375 23.25 4.1875Z" fill="white"/>
</svg>
